<svg width="104" height="132" viewBox="0 0 104 132" fill="none" xmlns="http://www.w3.org/2000/svg">
<path fill-rule="evenodd" clip-rule="evenodd" d="M23.8757 28.5C23.8757 12.967 36.4677 0.375 52.0007 0.375C67.5337 0.375 80.1257 12.967 80.1257 28.5C80.1257 44.033 67.5337 56.625 52.0007 56.625C36.4677 56.625 23.8757 44.033 23.8757 28.5Z" fill="#EBFAFF"/>
<path fill-rule="evenodd" clip-rule="evenodd" d="M23.8757 28.5C23.8757 12.967 36.4677 0.375 52.0007 0.375C67.5337 0.375 80.1257 12.967 80.1257 28.5C80.1257 44.033 67.5337 56.625 52.0007 56.625C36.4677 56.625 23.8757 44.033 23.8757 28.5Z" fill="black" fill-opacity="0.2"/>
<path fill-rule="evenodd" clip-rule="evenodd" d="M0.446012 116.658C0.929388 88.5973 23.8256 66 52.0007 66C80.1765 66 103.073 88.5984 103.555 116.66C103.587 118.521 102.515 120.225 100.824 121.001C85.9552 127.824 69.4165 131.625 52.0027 131.625C34.5874 131.625 18.0472 127.823 3.17774 120.999C1.48605 120.223 0.413954 118.519 0.446012 116.658Z" fill="#EBFAFF"/>
<path fill-rule="evenodd" clip-rule="evenodd" d="M0.446012 116.658C0.929388 88.5973 23.8256 66 52.0007 66C80.1765 66 103.073 88.5984 103.555 116.66C103.587 118.521 102.515 120.225 100.824 121.001C85.9552 127.824 69.4165 131.625 52.0027 131.625C34.5874 131.625 18.0472 127.823 3.17774 120.999C1.48605 120.223 0.413954 118.519 0.446012 116.658Z" fill="black" fill-opacity="0.2"/>
</svg>
