<svg width="332" height="560" viewBox="0 0 332 560" fill="none" xmlns="http://www.w3.org/2000/svg">
<g filter="url(#filter0_dd_1357_5830)">
<path fill-rule="evenodd" clip-rule="evenodd" d="M12 72C12 45.6014 12 32.402 20.201 24.201C28.402 16 41.6013 16 68 16H276C302.399 16 315.598 16 323.799 24.201C332 32.402 332 45.6013 332 72V201.625C318.745 201.625 308 212.706 308 226.375C308 240.044 318.745 251.125 332 251.125V488C332 514.399 332 527.598 323.799 535.799C315.598 544 302.399 544 276 544H68C41.6013 544 28.402 544 20.201 535.799C12 527.598 12 514.399 12 488V251.125C25.2548 251.125 36 240.044 36 226.375C36 212.706 25.2548 201.625 12 201.625V72Z" fill="#E1EFF3"/>
</g>
<path d="M37 229.399L308 229.399" stroke="#228EE5" stroke-width="2" stroke-dasharray="6 6"/>
<defs>
<filter id="filter0_dd_1357_5830" x="0" y="0" width="344" height="560" filterUnits="userSpaceOnUse" color-interpolation-filters="sRGB">
<feFlood flood-opacity="0" result="BackgroundImageFix"/>
<feColorMatrix in="SourceAlpha" type="matrix" values="0 0 0 0 0 0 0 0 0 0 0 0 0 0 0 0 0 0 127 0" result="hardAlpha"/>
<feOffset dy="4"/>
<feGaussianBlur stdDeviation="6"/>
<feComposite in2="hardAlpha" operator="out"/>
<feColorMatrix type="matrix" values="0 0 0 0 0.133333 0 0 0 0 0.556863 0 0 0 0 0.898039 0 0 0 0.4 0"/>
<feBlend mode="normal" in2="BackgroundImageFix" result="effect1_dropShadow_1357_5830"/>
<feColorMatrix in="SourceAlpha" type="matrix" values="0 0 0 0 0 0 0 0 0 0 0 0 0 0 0 0 0 0 127 0" result="hardAlpha"/>
<feOffset dy="-4"/>
<feGaussianBlur stdDeviation="6"/>
<feComposite in2="hardAlpha" operator="out"/>
<feColorMatrix type="matrix" values="0 0 0 0 0.133333 0 0 0 0 0.556863 0 0 0 0 0.898039 0 0 0 0.4 0"/>
<feBlend mode="normal" in2="effect1_dropShadow_1357_5830" result="effect2_dropShadow_1357_5830"/>
<feBlend mode="normal" in="SourceGraphic" in2="effect2_dropShadow_1357_5830" result="shape"/>
</filter>
</defs>
</svg>
